<?xml version="1.0" standalone="no"?>
<!DOCTYPE svg PUBLIC "-//W3C//DTD SVG 20010904//EN"
 "http://www.w3.org/TR/2001/REC-SVG-20010904/DTD/svg10.dtd">
<svg version="1.0" xmlns="http://www.w3.org/2000/svg"
 width="1280.000000pt" height="640.000000pt" viewBox="0 0 1280.000000 640.000000"
 preserveAspectRatio="xMidYMid meet">
<metadata>
Created by potrace 1.15, written by Peter Selinger 2001-2017
</metadata>
<g transform="translate(0.000000,640.000000) scale(0.100000,-0.100000)"
fill="#000000" stroke="none">
<path d="M3218 4588 l-3 -1183 -18 110 c-66 395 -282 716 -612 910 -169 100
-364 164 -605 201 -157 25 -495 24 -675 0 -649 -88 -1061 -401 -1224 -931 -88
-286 -104 -684 -41 -993 101 -486 393 -814 867 -972 211 -70 391 -98 678 -107
726 -22 1239 200 1468 635 35 67 97 238 97 268 0 2 -151 4 -335 4 l-334 0 -20
-46 c-71 -159 -225 -298 -412 -373 -133 -52 -222 -66 -419 -65 -154 1 -186 4
-272 27 -391 104 -639 382 -688 771 -5 44 -10 88 -10 98 0 17 60 18 1282 18
l1281 0 -6 -577 c-4 -318 -10 -599 -13 -626 l-7 -47 320 0 320 0 6 38 c4 21
10 108 13 193 l7 155 81 -84 c258 -269 690 -418 1156 -399 357 14 638 110 899
308 195 147 370 391 455 635 l25 69 0 -65 c5 -410 223 -710 623 -860 307 -115
739 -128 1112 -34 277 69 546 228 686 405 l37 48 7 -177 c4 -97 9 -189 12
-205 l6 -27 299 0 300 0 -6 32 c-16 97 -25 523 -25 1192 0 787 -3 845 -46 973
-9 25 -14 46 -12 48 4 5 1194 -2227 1191 -2234 -1 -4 -126 -241 -278 -529
-152 -288 -279 -530 -282 -538 -4 -12 46 -14 354 -14 l359 0 924 1812 c508
997 955 1873 993 1946 l69 132 -347 0 -346 0 -543 -1092 -543 -1093 -547 1093
-546 1092 -381 0 -380 0 29 -52 c16 -29 55 -101 87 -161 l57 -107 -84 83
c-211 210 -502 317 -950 349 -278 20 -623 -11 -860 -77 -424 -119 -707 -391
-754 -727 l-6 -48 338 0 339 0 17 58 c10 34 37 85 63 120 112 153 308 236 585
249 437 20 764 -159 835 -458 8 -36 15 -111 15 -171 l0 -108 -497 0 c-500 0
-683 -8 -868 -36 -500 -75 -808 -247 -956 -531 -22 -42 -29 -50 -25 -28 3 17
9 93 12 170 14 301 -44 577 -171 823 -74 142 -151 245 -266 357 -306 297 -731
435 -1226 397 -424 -33 -732 -160 -945 -391 l-68 -73 0 801 0 801 -325 0 -325
0 -2 -1182z m-1477 -378 c183 -17 334 -69 466 -158 81 -55 190 -175 235 -258
47 -87 86 -222 94 -324 l7 -80 -932 0 -931 0 0 48 c1 103 45 248 111 359 45
75 157 187 245 245 131 87 308 150 470 167 113 12 118 12 235 1z m3248 -20
c428 -44 735 -316 848 -749 31 -119 43 -362 24 -491 -101 -690 -732 -1066
-1382 -824 -100 37 -234 131 -323 225 -197 209 -297 503 -283 829 21 488 284
858 695 975 139 40 266 51 421 35z m3888 -1292 c-5 -168 -14 -213 -59 -326
-57 -139 -161 -270 -286 -360 -175 -125 -445 -191 -732 -179 -419 17 -653 216
-638 543 3 78 8 101 36 157 76 153 251 241 576 287 199 29 360 37 760 39 l349
1 -6 -162z"/>
</g>
</svg>
